<svg width="575" height="525" viewBox="0 0 575 525" fill="none" xmlns="http://www.w3.org/2000/svg">
<path d="M14.7996 32.788C10.6311 23.5528 21.2612 14.6873 29.5979 20.4463L170.338 117.67C173.491 119.848 177.611 120.05 181.079 118.42C188.756 114.811 204.028 108.45 224.921 103.698C255.757 96.6842 287.953 96.1832 287.953 96.1832C287.953 96.1832 324.672 98.0042 346.451 102.696C362.947 106.249 384.796 114.439 394.498 118.233C397.637 119.461 401.182 119.081 403.964 117.176L545.544 20.1798C553.887 14.4647 564.471 23.3269 560.311 32.5436L493.812 179.869C492.666 182.407 492.624 185.289 493.658 187.875C497.709 198 508.062 225.167 511.061 245.468C516.894 284.956 513.287 309.981 498.817 346.66C487.049 376.49 457.677 408.341 439.703 426.003C434.334 431.278 425.745 427.1 426.243 419.59C426.745 411.998 417.765 407.64 412.112 412.733L294.193 518.97C290.389 522.397 284.611 522.397 280.807 518.97L162.785 412.641C157.17 407.582 148.249 411.911 148.748 419.453C149.245 426.952 140.612 431.111 135.264 425.831C116.83 407.63 86.4875 374.844 75.7295 346.66C59.858 305.081 57.9028 274.157 63.4858 245.468C67.4622 225.034 77.5564 197.858 81.4346 187.806C82.416 185.262 82.3507 182.445 81.229 179.96L14.7996 32.788Z" fill="black"/>
<path d="M443.494 348.425C443.494 348.425 446.512 355.013 447.575 359.873C448.637 364.733 448.482 373.312 448.482 373.312C448.482 373.312 466.404 351.007 474.783 332.995C485.665 309.6 488.458 289.53 487.027 262.314C485.352 230.458 468.433 195.118 468.433 195.118L452.108 208.059C452.108 208.059 451.227 240.737 445.76 259.328C439.629 280.172 433.347 291.462 420.819 305.618C405.401 323.04 389.076 330.008 371.844 332.995C350.32 336.725 333.3 324.533 333.3 324.533L287.5 419.105L241.699 324.533C241.699 324.533 230.75 332.115 218.119 332.995C198.501 334.361 183.422 328.961 167.33 316.569C147.663 301.422 137.448 286.776 129.692 261.816C123.43 241.661 122.89 208.059 122.89 208.059L106.565 195.118C106.565 195.118 92.6883 225.111 89.787 247.879C86.4155 274.338 86.3033 294.33 94.3217 319.555C101.911 343.43 126.518 373.312 126.518 373.312C126.518 373.312 126.304 363.668 127.879 357.882C128.944 353.966 131.506 348.425 131.506 348.425L287.5 488.79L443.494 348.425Z" fill="white"/>
<path d="M161.435 265.301C158.717 254.694 160.981 236.929 160.981 236.929L235.351 292.677C235.351 292.677 225.829 301.138 207.235 301.138C206.329 301.138 193.53 301.343 184.562 295.663C172.773 288.197 165.517 281.229 161.435 265.301Z" fill="#F9C22B"/>
<path d="M413.565 265.301C416.283 254.694 414.019 236.929 414.019 236.929L339.649 292.677C339.649 292.677 349.171 301.138 367.765 301.138C368.671 301.138 381.47 301.343 390.438 295.663C402.227 288.197 409.483 281.229 413.565 265.301Z" fill="#F9C22B"/>
<path d="M287.5 124.437C287.5 124.437 313.801 124.437 345.091 131.406C376.38 138.374 400.414 150.32 400.414 150.32L517.409 70.6805L478.411 150.32L287.5 299.148L96.5892 150.32L57.5908 70.6805L174.586 150.32C174.586 150.32 190.911 141.361 223.561 132.899C256.211 124.437 287.5 124.437 287.5 124.437Z" fill="#405064"/>
</svg>
